name C:\Users\u0101727\Documents\MyRepositories\upper-imu-dc\Results\main_tracking\Case_32\ABD01_orientations_groundFrame.mot
datacolumns 13
datarows 14
range 2.81000000 2.94000000
endheader 
time	radius_imu_[0][0]	radius_imu_[0][1]	radius_imu_[0][2]	radius_imu_[1][0]	radius_imu_[1][1]	radius_imu_[1][2]	radius_imu_[2][0]	radius_imu_[2][1]	radius_imu_[2][2]	radius_imu_x	radius_imu_y	radius_imu_z	
          2.81000000	          0.51094339	         -0.06562592	          0.85710565	         -0.19917911	          0.96090824	          0.19230971	         -0.83622039	         -0.26897692	          0.47789840	         -0.38257975	          1.02962457	          0.12774131	
          2.82000000	          0.51596424	         -0.06467282	          0.85416528	         -0.19710388	          0.96142672	          0.19185599	         -0.83362519	         -0.26735012	          0.48331455	         -0.37788196	          1.02394349	          0.12469329	
          2.83000000	          0.52091927	         -0.06375880	          0.85122143	         -0.19545851	          0.96180250	          0.19165575	         -0.83092664	         -0.26621564	          0.48855926	         -0.37384014	          1.01830831	          0.12179093	
          2.84000000	          0.52556800	         -0.06292022	          0.84842167	         -0.19408681	          0.96209522	          0.19158051	         -0.82831672	         -0.26535603	          0.49343448	         -0.37034426	          1.01299632	          0.11915142	
          2.85000000	          0.52967323	         -0.06218233	          0.84591940	         -0.19290792	          0.96234237	          0.19152990	         -0.82597385	         -0.26463281	          0.49773152	         -0.36733956	          1.00828676	          0.11686262	
          2.86000000	          0.53304779	         -0.06156149	          0.84384254	         -0.19188252	          0.96256656	          0.19143332	         -0.82403954	         -0.26396174	          0.50128140	         -0.36479569	          1.00440444	          0.11498023	
          2.87000000	          0.53559930	         -0.06106545	          0.84226148	         -0.19098375	          0.96278150	          0.19125112	         -0.82259261	         -0.26329222	          0.50400259	         -0.36267904	          1.00146473	          0.11352311	
          2.88000000	          0.53735752	         -0.06069338	          0.84116776	         -0.19017719	          0.96299626	          0.19097338	         -0.82163223	         -0.26259190	          0.50593079	         -0.36093383	          0.99943904	          0.11247120	
          2.89000000	          0.53848006	         -0.06043592	          0.84046816	         -0.18941028	          0.96321820	          0.19061594	         -0.82107428	         -0.26183620	          0.50722661	         -0.35947218	          0.99814663	          0.11176654	
          2.90000000	          0.53923335	         -0.06027583	          0.83999656	         -0.18861163	          0.96345445	          0.19021352	         -0.82076369	         -0.26100260	          0.50815805	         -0.35817403	          0.99727687	          0.11131851	
          2.91000000	          0.53994782	         -0.06018984	          0.83954364	         -0.18769985	          0.96371205	          0.18981003	         -0.82050296	         -0.26006973	          0.50905660	         -0.35689869	          0.99644269	          0.11101512	
          2.92000000	          0.54095149	         -0.06015153	          0.83890004	         -0.18659971	          0.96399704	          0.18944723	         -0.82009270	         -0.25902027	          0.51025138	         -0.35550721	          0.99525914	          0.11074087	
          2.93000000	          0.54249737	         -0.06013497	          0.83790238	         -0.18526084	          0.96431284	          0.18915383	         -0.81937478	         -0.25784595	          0.51199652	         -0.35389041	          0.99342874	          0.11039772	
          2.94000000	          0.54471003	         -0.06011772	          0.83646688	         -0.18367175	          0.96465894	          0.18893868	         -0.81826381	         -0.25655213	          0.51441747	         -0.35199120	          0.99080404	          0.10992160	
